name C:\Users\r0593348\3dpredictsim\Results\MidTarsalJoint\Fal_s1_bCst_PF_Natali2010_ls150_MT_k800_d020_MTP_T5_ig21.mot
datacolumns 128
datarows 4
range 0.00000000 0.03356254
endheader
time	pelvis_tilt	pelvis_list	pelvis_rotation	pelvis_tx	pelvis_ty	pelvis_tz	hip_flexion_l	hip_adduction_l	hip_rotation_l	hip_flexion_r	hip_adduction_r	hip_rotation_r	knee_angle_l	knee_angle_r	ankle_angle_l	ankle_angle_r	subtalar_angle_l	subtalar_angle_r	mtj_angle_l	mtj_angle_r	mtp_angle_l	mtp_angle_r	lumbar_extension	lumbar_bending	lumbar_rotation	arm_flex_l	arm_add_l	arm_rot_l	arm_flex_r	arm_add_r	arm_rot_r	elbow_flex_l	elbow_flex_r	pro_sup_l	pro_sup_r	glut_med1_l/activation	glut_med2_l/activation	glut_med3_l/activation	glut_min1_l/activation	glut_min2_l/activation	glut_min3_l/activation	semimem_l/activation	semiten_l/activation	bifemlh_l/activation	bifemsh_l/activation	sar_l/activation	add_long_l/activation	add_brev_l/activation	add_mag1_l/activation	add_mag2_l/activation	add_mag3_l/activation	tfl_l/activation	pect_l/activation	grac_l/activation	glut_max1_l/activation	glut_max2_l/activation	glut_max3_l/activation	iliacus_l/activation	psoas_l/activation	quad_fem_l/activation	gem_l/activation	peri_l/activation	rect_fem_l/activation	vas_med_l/activation	vas_int_l/activation	vas_lat_l/activation	med_gas_l/activation	lat_gas_l/activation	soleus_l/activation	tib_post_l/activation	flex_dig_l/activation	flex_hal_l/activation	tib_ant_l/activation	per_brev_l/activation	per_long_l/activation	per_tert_l/activation	ext_dig_l/activation	ext_hal_l/activation	ercspn_l/activation	intobl_l/activation	extobl_l/activation	glut_med1_r/activation	glut_med2_r/activation	glut_med3_r/activation	glut_min1_r/activation	glut_min2_r/activation	glut_min3_r/activation	semimem_r/activation	semiten_r/activation	bifemlh_r/activation	bifemsh_r/activation	sar_r/activation	add_long_r/activation	add_brev_r/activation	add_mag1_r/activation	add_mag2_r/activation	add_mag3_r/activation	tfl_r/activation	pect_r/activation	grac_r/activation	glut_max1_r/activation	glut_max2_r/activation	glut_max3_r/activation	iliacus_r/activation	psoas_r/activation	quad_fem_r/activation	gem_r/activation	peri_r/activation	rect_fem_r/activation	vas_med_r/activation	vas_int_r/activation	vas_lat_r/activation	med_gas_r/activation	lat_gas_r/activation	soleus_r/activation	tib_post_r/activation	flex_dig_r/activation	flex_hal_r/activation	tib_ant_r/activation	per_brev_r/activation	per_long_r/activation	per_tert_r/activation	ext_dig_r/activation	ext_hal_r/activation	ercspn_r/activation	intobl_r/activation	extobl_r/activation	
          0.00000000	         -2.93012051	         -2.11285906	          5.09889424	          0.00000000	          0.91932080	         -0.00154205	        -17.28929135	         -1.14058953	          6.35853349	         29.38855225	          3.51495126	         -1.98253750	         -7.08001958	        -12.21993285	         -0.75747000	          5.84622846	          8.58133769	         -4.48285498	          1.94695475	         -0.00913254	         17.30169443	         -0.88145223	         -2.04387727	          0.32828256	         -1.98013857	          5.17224488	        -13.45833115	         16.99435631	         -4.67989497	        -13.45803150	          6.99521172	         33.00192921	         16.25934544	         86.51662706	         86.51662706	          0.26633253	          0.09908347	          0.07084833	          0.30044031	          0.19612213	          0.10842455	          0.05000115	          0.05000034	          0.05000023	          0.06140693	          0.10039253	          0.10676753	          0.05018850	          0.05000275	          0.05000362	          0.05000105	          0.30281479	          0.08556989	          0.05000613	          0.05000615	          0.05000453	          0.05000407	          0.39175538	          0.62139950	          0.05003539	          0.05000117	          0.05547603	          0.22307308	          0.05322107	          0.05016005	          0.05006641	          0.28495399	          0.38930703	          0.30904043	          0.28685829	          0.28197464	          0.37084141	          0.05000005	          0.05814501	          0.12529977	          0.05000030	          0.05000008	          0.05000030	          0.05000004	          0.05000019	          0.05000012	          0.05932239	          0.05932244	          0.05000023	          0.05932295	          0.05932290	          0.05000643	          0.10482444	          0.05186013	          0.20914060	          0.05000029	          0.05000056	          0.13412549	          0.30665318	          0.14870772	          0.14906085	          0.11116665	          0.05000016	          0.08291934	          0.08035152	          0.05000068	          0.13038088	          0.15494273	          0.05258393	          0.05000047	          0.16179701	          0.24982899	          0.13124963	          0.05893038	          0.14627768	          0.14371804	          0.12867183	          0.05000039	          0.05000043	          0.05161049	          0.05000003	          0.05000047	          0.05000022	          0.56561623	          0.26754798	          0.16843123	          0.27758245	          0.48347934	          0.23556327	          0.05932297	          0.10996427	          0.10280419	
          0.01118751	         -2.92681865	         -2.20052354	          5.38284331	          0.01684089	          0.91832516	         -0.00134444	        -17.16727963	         -1.43408453	          6.15423363	         28.74291671	          3.83922360	         -1.74287678	         -8.97833625	        -12.37287524	         -1.42490421	          5.23055596	          9.50189524	         -4.86064421	          1.54303557	         -0.00060970	         18.58476938	         -0.87112009	         -1.84692069	          0.53199638	         -2.04451202	          4.89507596	        -13.46891857	         17.29869914	         -5.56056154	        -13.45841168	          6.69514361	         34.16141206	         15.91746197	         86.51662706	         86.51662706	          0.22447699	          0.08351199	          0.05971416	          0.25322474	          0.16530054	          0.09138510	          0.05000380	          0.05000081	          0.05000092	          0.05175660	          0.08461558	          0.19446835	          0.05245401	          0.05951170	          0.05928153	          0.05932339	          0.25522597	          0.09894459	          0.05000487	          0.05000310	          0.05000219	          0.05000252	          0.33018899	          0.57552578	          0.05000049	          0.05929481	          0.05932287	          0.18801655	          0.12611888	          0.15375169	          0.14672499	          0.24017190	          0.32812531	          0.26047306	          0.24657045	          0.23766155	          0.31256271	          0.05000005	          0.05000018	          0.13546813	          0.05000017	          0.05000005	          0.05000025	          0.05722232	          0.05932424	          0.05652954	          0.05000002	          0.05000008	          0.10791038	          0.05000008	          0.05000010	          0.05000015	          0.08835087	          0.05000030	          0.17627308	          0.05000023	          0.05000364	          0.11304721	          0.25846152	          0.30903960	          0.21474976	          0.12712098	          0.05000118	          0.06989157	          0.12134330	          0.07632770	          0.11618234	          0.13059293	          0.05000013	          0.05000182	          0.38629554	          0.21056704	          0.11062309	          0.05932466	          0.14902683	          0.15095617	          0.12872925	          0.05000040	          0.05932447	          0.05000004	          0.05945050	          0.05000846	          0.05932383	          0.47672778	          0.28233774	          0.20429934	          0.23395904	          0.44677376	          0.19854331	          0.05000005	          0.09268279	          0.08664795	
          0.02237502	         -2.91973988	         -2.29105015	          5.63795443	          0.03394888	          0.91738345	         -0.00115926	        -16.97099284	         -1.72629989	          5.94115294	         27.97929060	          4.08924852	         -1.48202753	        -10.99162015	        -12.85175153	         -2.25716255	          4.73518621	         10.37729848	         -5.25703465	          1.08198446	         -0.09374248	         19.80574189	         -0.91757696	         -1.63170649	          0.74637505	         -2.09787368	          4.54383347	        -13.47796593	         17.52781309	         -6.46455269	        -13.46495260	          6.44892649	         35.30732531	         15.62561026	         86.51662706	         86.51662706	          0.33069090	          0.07038765	          0.05032983	          0.31342250	          0.13932277	          0.07702349	          0.05000207	          0.05000035	          0.05000029	          0.05000026	          0.07131813	          0.16390682	          0.05122502	          0.05015959	          0.05000226	          0.05000149	          0.21666084	          0.08339727	          0.05000195	          0.05000424	          0.05000265	          0.05000185	          0.27829811	          0.54066622	          0.05000056	          0.05000102	          0.05000037	          0.15846879	          0.10629916	          0.12958929	          0.12366678	          0.20242756	          0.27655862	          0.21953828	          0.20782065	          0.20031197	          0.26344197	          0.05000002	          0.09277665	          0.15540521	          0.05000018	          0.05000007	          0.05000019	          0.05156431	          0.05000112	          0.05000007	          0.23502148	          0.23512704	          0.29485364	          0.35089663	          0.21544332	          0.20009241	          0.08702129	          0.05001335	          0.15036971	          0.08042770	          0.05000373	          0.09528130	          0.21784299	          0.26047247	          0.18100089	          0.12211020	          0.05000066	          0.05932379	          0.10227566	          0.13693579	          0.13942694	          0.11006980	          0.05922201	          0.05000103	          0.32558716	          0.17747546	          0.22358778	          0.05000151	          0.12560657	          0.12723271	          0.10849884	          0.05000191	          0.05000213	          0.05308257	          0.05010760	          0.05000063	          0.05000135	          0.56482011	          0.33890949	          0.17260612	          0.34537874	          0.51987127	          0.19071703	          0.06401279	          0.11228011	          0.07303075	
          0.03356254	         -2.91110134	         -2.37436087	          5.85957791	          0.05110912	          0.91651929	         -0.00095435	        -16.66878554	         -2.00723050	          5.73516807	         27.16916420	          4.32199495	         -1.22152234	        -13.15041957	        -13.29752157	         -3.26710883	          4.28689074	         11.21027337	         -5.65959901	          0.61072608	         -0.07823315	         20.87028899	         -0.89614704	         -1.42101814	          0.96138473	         -2.14262854	          4.15475242	        -13.49235414	         17.70623603	         -7.34446365	        -13.47238627	          6.25988891	         36.41993518	         15.35939608	         86.51662706	         86.51662706	          0.30628666	          0.05932588	          0.05000014	          0.26418132	          0.11742753	          0.06491889	          0.05000365	          0.05000038	          0.05000032	          0.05000029	          0.06011038	          0.16724113	          0.05003738	          0.05000446	          0.05000532	          0.05000336	          0.18261268	          0.07029337	          0.05000172	          0.05000293	          0.05000194	          0.05000152	          0.23456209	          0.49301125	          0.05000030	          0.05000107	          0.05000027	          0.13356459	          0.12524497	          0.11526604	          0.11755108	          0.17061495	          0.23309591	          0.18503663	          0.17516054	          0.16883201	          0.22204075	          0.05021206	          0.09809028	          0.15717411	          0.05000071	          0.11502878	          0.05000124	          0.08243582	          0.05000002	          0.05000006	          0.32505449	          0.32988623	          0.36680289	          0.29575160	          0.18158625	          0.18680661	          0.07635941	          0.09056378	          0.12673855	          0.06779269	          0.05000100	          0.08030738	          0.18360787	          0.21953830	          0.17302485	          0.16390175	          0.05000040	          0.05000336	          0.10414922	          0.22990007	          0.18985113	          0.16133266	          0.05000013	          0.05000014	          0.27441946	          0.14958433	          0.18845042	          0.05000008	          0.13575735	          0.15828603	          0.11113045	          0.05000003	          0.05000007	          0.05000001	          0.05000002	          0.05000015	          0.05000014	          0.61869291	          0.29594959	          0.16139428	          0.57298976	          0.55256038	          0.30139997	          0.08290819	          0.09463471	          0.06155358	
